<svg width="48" height="48" viewBox="0 0 48 48" fill="none" xmlns="http://www.w3.org/2000/svg">
<rect width="48" height="48" rx="14" fill="#70727E"/>
<rect x="4" y="2" width="40" height="46" rx="19" fill="#F0F0F0"/>
<g clip-path="url(#clip0_350_527)">
<path d="M24 0C10.7459 0 0 10.8107 0 24.1449C0 36.1944 8.77528 46.1817 20.2508 48V31.1259H14.1542V24.1449H20.2508V18.8252C20.2508 12.7691 23.8344 9.42952 29.3141 9.42952C31.94 9.42952 34.6907 9.90039 34.6907 9.90039V15.8382H31.6568C28.6805 15.8382 27.7492 17.7024 27.7492 19.6124V24.1401H34.4002L33.3369 31.121H27.7492V47.9952C39.2247 46.1865 48 36.1968 48 24.1449C48 10.8107 37.2541 0 24 0Z" fill="#70727E"/>
</g>
<defs>
<clipPath id="clip0_350_527">
<rect width="48" height="48" fill="white"/>
</clipPath>
</defs>
</svg>
