<svg width="143" height="112" viewBox="0 0 143 112" fill="none" xmlns="http://www.w3.org/2000/svg">
<path d="M21.4816 21.0126C33.3258 9.42678 52.5645 9.39214 64.4088 20.9779L114.124 69.6088L71.1618 111.634L21.4462 63.0031C9.60197 51.4173 9.63736 32.5984 21.4816 21.0126Z" fill="#FF1054"/>
<path d="M120.726 21.132C132.57 32.7178 132.605 51.5367 120.761 63.1225L71.1666 111.635L28.204 69.6098L77.7986 21.0973C89.6428 9.51151 108.882 9.54616 120.726 21.132Z" fill="#FF1054"/>
<path d="M51.15 65.3335C49.55 65.3335 48.2083 65.1002 47.125 64.6335C46.0583 64.1668 45.25 63.5585 44.7 62.8085C44.15 62.0585 43.8583 61.2585 43.825 60.4085C43.825 60.2752 43.875 60.1585 43.975 60.0585C44.075 59.9418 44.2 59.8835 44.35 59.8835H47.025C47.2417 59.8835 47.4083 59.9335 47.525 60.0335C47.6417 60.1168 47.75 60.2252 47.85 60.3585C47.9667 60.6418 48.15 60.9168 48.4 61.1835C48.6667 61.4502 49.025 61.6752 49.475 61.8585C49.925 62.0252 50.4833 62.1085 51.15 62.1085C52.2333 62.1085 53.0417 61.9335 53.575 61.5835C54.125 61.2335 54.4 60.7585 54.4 60.1585C54.4 59.7252 54.25 59.3752 53.95 59.1085C53.6667 58.8418 53.2083 58.6002 52.575 58.3835C51.9583 58.1668 51.1333 57.9335 50.1 57.6835C48.85 57.4168 47.7833 57.0752 46.9 56.6585C46.0333 56.2252 45.375 55.6752 44.925 55.0085C44.4917 54.3252 44.275 53.4835 44.275 52.4835C44.275 51.4835 44.55 50.6002 45.1 49.8335C45.65 49.0502 46.425 48.4418 47.425 48.0085C48.425 47.5585 49.6167 47.3335 51 47.3335C52.1167 47.3335 53.1 47.4835 53.95 47.7835C54.8167 48.0835 55.5333 48.4752 56.1 48.9585C56.6833 49.4418 57.125 49.9585 57.425 50.5085C57.725 51.0585 57.8833 51.5918 57.9 52.1085C57.9 52.2418 57.85 52.3668 57.75 52.4835C57.65 52.5835 57.525 52.6335 57.375 52.6335H54.575C54.4083 52.6335 54.2583 52.6002 54.125 52.5335C53.9917 52.4668 53.8833 52.3502 53.8 52.1835C53.7 51.7502 53.4 51.3752 52.9 51.0585C52.4167 50.7252 51.7833 50.5585 51 50.5585C50.1833 50.5585 49.5333 50.7085 49.05 51.0085C48.5833 51.3085 48.35 51.7668 48.35 52.3835C48.35 52.7835 48.4667 53.1252 48.7 53.4085C48.95 53.6752 49.3583 53.9168 49.925 54.1335C50.5083 54.3335 51.275 54.5585 52.225 54.8085C53.6917 55.1085 54.8833 55.4668 55.8 55.8835C56.7167 56.3002 57.3917 56.8418 57.825 57.5085C58.2583 58.1585 58.475 58.9835 58.475 59.9835C58.475 61.1002 58.1583 62.0585 57.525 62.8585C56.9083 63.6585 56.05 64.2752 54.95 64.7085C53.8667 65.1252 52.6 65.3335 51.15 65.3335ZM67.1336 65.0835C66.1003 65.0835 65.2169 64.9168 64.4836 64.5835C63.7503 64.2335 63.1919 63.7002 62.8086 62.9835C62.4419 62.2668 62.2586 61.3668 62.2586 60.2835V55.0335H60.3086C60.1253 55.0335 59.9753 54.9752 59.8586 54.8585C59.7419 54.7418 59.6836 54.5918 59.6836 54.4085V52.7085C59.6836 52.5252 59.7419 52.3752 59.8586 52.2585C59.9753 52.1418 60.1253 52.0835 60.3086 52.0835H62.2586V47.9585C62.2586 47.7752 62.3169 47.6252 62.4336 47.5085C62.5669 47.3918 62.7169 47.3335 62.8836 47.3335H65.3336C65.5169 47.3335 65.6669 47.3918 65.7836 47.5085C65.9003 47.6252 65.9586 47.7752 65.9586 47.9585V52.0835H69.0836C69.2503 52.0835 69.3919 52.1418 69.5086 52.2585C69.6253 52.3752 69.6836 52.5252 69.6836 52.7085V54.4085C69.6836 54.5918 69.6253 54.7418 69.5086 54.8585C69.3919 54.9752 69.2503 55.0335 69.0836 55.0335H65.9586V59.9835C65.9586 60.6168 66.0669 61.1168 66.2836 61.4835C66.5169 61.8335 66.9169 62.0085 67.4836 62.0085H69.3086C69.4753 62.0085 69.6169 62.0668 69.7336 62.1835C69.8503 62.3002 69.9086 62.4418 69.9086 62.6085V64.4585C69.9086 64.6418 69.8503 64.7918 69.7336 64.9085C69.6169 65.0252 69.4753 65.0835 69.3086 65.0835H67.1336ZM78.0396 65.3335C76.6563 65.3335 75.498 65.1085 74.5646 64.6585C73.6313 64.1918 72.9146 63.5335 72.4146 62.6835C71.9313 61.8335 71.6646 60.8418 71.6146 59.7085C71.598 59.3752 71.5896 59.0002 71.5896 58.5835C71.5896 58.1502 71.598 57.7752 71.6146 57.4585C71.6646 56.3085 71.948 55.3168 72.4646 54.4835C72.9813 53.6335 73.7063 52.9835 74.6396 52.5335C75.573 52.0668 76.7063 51.8335 78.0396 51.8335C79.3563 51.8335 80.4813 52.0668 81.4146 52.5335C82.348 52.9835 83.073 53.6335 83.5896 54.4835C84.1063 55.3168 84.3896 56.3085 84.4396 57.4585C84.473 57.7752 84.4896 58.1502 84.4896 58.5835C84.4896 59.0002 84.473 59.3752 84.4396 59.7085C84.3896 60.8418 84.1146 61.8335 83.6146 62.6835C83.1313 63.5335 82.423 64.1918 81.4896 64.6585C80.5563 65.1085 79.4063 65.3335 78.0396 65.3335ZM78.0396 62.5835C78.8563 62.5835 79.473 62.3335 79.8896 61.8335C80.3063 61.3168 80.5313 60.5668 80.5646 59.5835C80.5813 59.3335 80.5896 59.0002 80.5896 58.5835C80.5896 58.1668 80.5813 57.8335 80.5646 57.5835C80.5313 56.6168 80.3063 55.8752 79.8896 55.3585C79.473 54.8418 78.8563 54.5835 78.0396 54.5835C77.223 54.5835 76.598 54.8418 76.1646 55.3585C75.748 55.8752 75.523 56.6168 75.4896 57.5835C75.473 57.8335 75.4646 58.1668 75.4646 58.5835C75.4646 59.0002 75.473 59.3335 75.4896 59.5835C75.523 60.5668 75.748 61.3168 76.1646 61.8335C76.598 62.3335 77.223 62.5835 78.0396 62.5835ZM72.1896 65.7835C72.0563 65.7835 71.9396 65.7335 71.8396 65.6335C71.7396 65.5335 71.6896 65.4168 71.6896 65.2835C71.6896 65.2335 71.698 65.1835 71.7146 65.1335C71.7313 65.0835 71.7646 65.0168 71.8146 64.9335L82.5396 51.7835C82.5896 51.7168 82.6563 51.6418 82.7396 51.5585C82.8396 51.4585 82.973 51.4085 83.1396 51.4085H83.8396C83.973 51.4085 84.0896 51.4585 84.1896 51.5585C84.2896 51.6585 84.3396 51.7752 84.3396 51.9085C84.3396 51.9252 84.3313 51.9668 84.3146 52.0335C84.3146 52.1002 84.2813 52.1752 84.2146 52.2585L73.4896 65.4085C73.4396 65.4752 73.373 65.5502 73.2896 65.6335C73.2063 65.7335 73.0813 65.7835 72.9146 65.7835H72.1896ZM93.2811 65.0835C92.2477 65.0835 91.3644 64.9168 90.6311 64.5835C89.8977 64.2335 89.3394 63.7002 88.9561 62.9835C88.5894 62.2668 88.4061 61.3668 88.4061 60.2835V55.0335H86.4561C86.2727 55.0335 86.1227 54.9752 86.0061 54.8585C85.8894 54.7418 85.8311 54.5918 85.8311 54.4085V52.7085C85.8311 52.5252 85.8894 52.3752 86.0061 52.2585C86.1227 52.1418 86.2727 52.0835 86.4561 52.0835H88.4061V47.9585C88.4061 47.7752 88.4644 47.6252 88.5811 47.5085C88.7144 47.3918 88.8644 47.3335 89.0311 47.3335H91.4811C91.6644 47.3335 91.8144 47.3918 91.9311 47.5085C92.0477 47.6252 92.1061 47.7752 92.1061 47.9585V52.0835H95.2311C95.3977 52.0835 95.5394 52.1418 95.6561 52.2585C95.7727 52.3752 95.8311 52.5252 95.8311 52.7085V54.4085C95.8311 54.5918 95.7727 54.7418 95.6561 54.8585C95.5394 54.9752 95.3977 55.0335 95.2311 55.0335H92.1061V59.9835C92.1061 60.6168 92.2144 61.1168 92.4311 61.4835C92.6644 61.8335 93.0644 62.0085 93.6311 62.0085H95.4561C95.6227 62.0085 95.7644 62.0668 95.8811 62.1835C95.9977 62.3002 96.0561 62.4418 96.0561 62.6085V64.4585C96.0561 64.6418 95.9977 64.7918 95.8811 64.9085C95.7644 65.0252 95.6227 65.0835 95.4561 65.0835H93.2811Z" fill="#F0F0F0"/>
</svg>
