<svg width="48" height="48" viewBox="0 0 48 48" fill="none" xmlns="http://www.w3.org/2000/svg">
<path d="M47.8454 14.1674C47.8185 12.152 47.4406 10.1566 46.7286 8.27054C46.1111 6.67964 45.168 5.23481 43.9596 4.02838C42.7511 2.82194 41.3039 1.88043 39.7104 1.264C37.8454 0.565093 35.8752 0.187182 33.8836 0.146358C31.3194 0.0319328 30.5064 0 23.9973 0C17.4882 0 16.6539 1.78814e-07 14.1084 0.146358C12.1177 0.187482 10.1484 0.565388 8.28432 1.264C6.69051 1.88 5.24306 2.82136 4.03456 4.02785C2.82606 5.23434 1.88313 6.67939 1.2661 8.27054C0.564632 10.131 0.186912 12.0974 0.149267 14.0849C0.0346512 16.6475 0 17.4591 0 23.9574C0 30.4557 -2.98023e-08 31.286 0.149267 33.8299C0.189249 35.8204 0.565082 37.7842 1.2661 39.6496C1.88417 41.2403 2.8278 42.6848 4.0367 43.8907C5.2456 45.0967 6.6932 46.0377 8.28698 46.6535C10.146 47.3805 12.1156 47.7855 14.1111 47.851C16.6779 47.9654 17.4909 48 24 48C30.5091 48 31.3434 48 33.8889 47.851C35.8805 47.8118 37.8508 47.4348 39.7157 46.736C41.3088 46.1189 42.7557 45.1771 43.964 43.9708C45.1724 42.7644 46.1157 41.32 46.7339 39.7295C47.4349 37.8667 47.8107 35.9029 47.8507 33.9097C47.9653 31.3498 48 30.5382 48 24.0373C47.9947 17.539 47.9947 16.7141 47.8454 14.1674ZM23.9813 36.2461C17.1737 36.2461 11.6588 30.7404 11.6588 23.9441C11.6588 17.1478 17.1737 11.6421 23.9813 11.6421C27.2495 11.6421 30.3838 12.9382 32.6947 15.2453C35.0056 17.5524 36.3039 20.6814 36.3039 23.9441C36.3039 27.2068 35.0056 30.3359 32.6947 32.643C30.3838 34.95 27.2495 36.2461 23.9813 36.2461ZM36.7943 14.0557C36.4169 14.056 36.0431 13.9821 35.6943 13.838C35.3455 13.694 35.0286 13.4827 34.7617 13.2162C34.4949 12.9498 34.2832 12.6334 34.1389 12.2852C33.9947 11.937 33.9206 11.5639 33.9209 11.1871C33.9209 10.8105 33.9952 10.4377 34.1395 10.0898C34.2839 9.74192 34.4954 9.42583 34.7621 9.15958C35.0288 8.89333 35.3454 8.68212 35.6939 8.53803C36.0423 8.39393 36.4158 8.31977 36.793 8.31977C37.1701 8.31977 37.5436 8.39393 37.8921 8.53803C38.2405 8.68212 38.5571 8.89333 38.8238 9.15958C39.0905 9.42583 39.3021 9.74192 39.4464 10.0898C39.5908 10.4377 39.665 10.8105 39.665 11.1871C39.665 12.773 38.3803 14.0557 36.7943 14.0557Z" fill="#70727E"/>
<path d="M23.9855 30.9581C27.8554 30.9581 30.9925 27.821 30.9925 23.9511C30.9925 20.0812 27.8554 16.9441 23.9855 16.9441C20.1157 16.9441 16.9785 20.0812 16.9785 23.9511C16.9785 27.821 20.1157 30.9581 23.9855 30.9581Z" fill="#70727E"/>
</svg>
