<svg width="48" height="48" viewBox="0 0 48 48" fill="none" xmlns="http://www.w3.org/2000/svg">
<rect width="48" height="48" rx="14" fill="#70727E"/>
<path d="M11.5133 6C10.5815 6 9.68791 6.37217 9.02903 7.03464C8.37015 7.6971 8 8.5956 8 9.53247C8 10.4693 8.37015 11.3678 9.02903 12.0303C9.68791 12.6928 10.5815 13.0649 11.5133 13.0649C12.4451 13.0649 13.3388 12.6928 13.9976 12.0303C14.6565 11.3678 15.0267 10.4693 15.0267 9.53247C15.0267 8.5956 14.6565 7.6971 13.9976 7.03464C13.3388 6.37217 12.4451 6 11.5133 6ZM8.20667 15.974C8.15186 15.974 8.09929 15.9959 8.06053 16.0349C8.02177 16.0739 8 16.1267 8 16.1818V37.7922C8 37.9069 8.09259 38 8.20667 38H14.82C14.8748 38 14.9274 37.9781 14.9661 37.9391C15.0049 37.9002 15.0267 37.8473 15.0267 37.7922V16.1818C15.0267 16.1267 15.0049 16.0739 14.9661 16.0349C14.9274 15.9959 14.8748 15.974 14.82 15.974H8.20667ZM18.9533 15.974C18.8985 15.974 18.846 15.9959 18.8072 16.0349C18.7684 16.0739 18.7467 16.1267 18.7467 16.1818V37.7922C18.7467 37.9069 18.8393 38 18.9533 38H25.5667C25.6215 38 25.674 37.9781 25.7128 37.9391C25.7516 37.9002 25.7733 37.8473 25.7733 37.7922V26.1558C25.7733 25.3292 26.0999 24.5364 26.6813 23.9519C27.2627 23.3673 28.0512 23.039 28.8733 23.039C29.6955 23.039 30.484 23.3673 31.0654 23.9519C31.6467 24.5364 31.9733 25.3292 31.9733 26.1558V37.7922C31.9733 37.9069 32.0659 38 32.18 38H38.7933C38.8481 38 38.9007 37.9781 38.9395 37.9391C38.9782 37.9002 39 37.8473 39 37.7922V23.4629C39 19.4284 35.5115 16.2732 31.5187 16.6373C30.2833 16.7504 29.0732 17.0578 27.9326 17.5483L25.7733 18.4792V16.1818C25.7733 16.1267 25.7516 16.0739 25.7128 16.0349C25.674 15.9959 25.6215 15.974 25.5667 15.974H18.9533Z" fill="#F0F0F0"/>
</svg>
