<svg width="48" height="48" viewBox="0 0 48 48" fill="none" xmlns="http://www.w3.org/2000/svg">
<rect width="48" height="48" rx="14" fill="#70727E"/>
<path d="M43 14.4362C41.6121 15.027 40.1436 15.4163 38.6409 15.5917C40.2201 14.6857 41.4077 13.2464 41.981 11.5438C40.4879 12.3991 38.8572 12.9992 37.1586 13.3185C36.4434 12.5841 35.5831 11.9998 34.6302 11.6013C33.6773 11.2027 32.6517 10.9981 31.6156 11C27.4207 11 24.0259 14.2776 24.0259 18.318C24.023 18.88 24.0887 19.4403 24.2217 19.987C21.2137 19.8488 18.2682 19.097 15.5737 17.7797C12.8793 16.4624 10.4951 14.6085 8.57381 12.3367C7.89978 13.45 7.54331 14.7202 7.54167 16.0146C7.54167 18.5521 8.89294 20.795 10.9333 22.1091C9.72446 22.081 8.54035 21.7675 7.48154 21.1953V21.2859C7.48154 24.8354 10.1024 27.7882 13.5711 28.4604C12.9188 28.6307 12.2467 28.7171 11.5716 28.7171C11.0926 28.718 10.6146 28.6724 10.1448 28.5812C11.1091 31.4887 13.9157 33.6033 17.2403 33.6637C14.5388 35.7035 11.2221 36.806 7.81146 36.7978C7.20606 36.797 6.60122 36.7617 6 36.6921C9.46966 38.8627 13.5029 40.0109 17.6195 39.9999C31.5994 39.9999 39.2368 28.8455 39.2368 19.1713C39.2368 18.8542 39.2283 18.537 39.2129 18.2273C40.6953 17.1943 41.9777 15.9104 43 14.4362Z" fill="#F0F0F0"/>
</svg>
