<svg width="48" height="48" viewBox="0 0 48 48" fill="none" xmlns="http://www.w3.org/2000/svg">
<ellipse cx="23.5" cy="24" rx="23.5" ry="24" fill="#70727E"/>
<rect width="48" height="48" rx="14" fill="#70727E"/>
<g clip-path="url(#clip0_350_507)">
<rect width="48" height="48" rx="24" fill="#F0F0F0"/>
<path d="M20.6505 29.031H22.7475L22.7475 38.5965L21.063 38.5935L21.0675 37.359C20.616 38.328 18.807 39.111 17.8635 38.43C17.358 38.0685 17.3745 37.431 17.3235 36.8865C17.2965 36.5775 17.319 35.8995 17.3175 34.9815L17.3115 29.031H19.3965L19.407 35.076C19.407 35.901 19.362 36.381 19.413 36.54C19.71 37.4505 20.478 36.9585 20.6475 36.4935C20.7045 36.3375 20.6505 35.904 20.6505 35.037L20.6505 29.031ZM29.4525 30.906L29.4585 35.907C29.4585 38.3295 28.0755 39.7095 25.872 37.689L25.716 38.4885L23.9925 38.514L24.003 25.689L26.097 25.686L26.088 29.403C28.026 27.864 29.451 29.004 29.4525 30.906ZM27.9 30.657C27.9 30.246 27.489 29.904 26.9835 29.904C26.4795 29.904 26.0685 30.246 26.0685 30.657L26.0685 36.267C26.0685 36.681 26.4795 37.02 26.9835 37.02C27.489 37.02 27.9 36.681 27.9 36.267L27.9 30.657ZM23.6295 18.4215C24.141 18.4215 24.558 17.9625 24.558 17.4V12.1065C24.558 11.544 24.141 11.0835 23.6295 11.0835C23.1195 11.0835 22.701 11.544 22.701 12.1065V17.4C22.701 17.964 23.1195 18.4215 23.6295 18.4215ZM17.7225 27.354V25.6905L11.016 25.68V27.3195L13.11 27.324V38.6055H15.2085L15.2055 27.3585H17.7225V27.354ZM48 0V48H0L0 0L48 0ZM27.7125 16.5285C27.7125 17.379 27.7275 17.9505 27.753 18.24C27.783 18.5265 27.846 18.8025 27.9555 19.071C28.062 19.3335 28.2315 19.5435 28.4595 19.7085C28.6845 19.866 28.9725 19.9455 29.3175 19.9455C29.619 19.9455 29.8875 19.8615 30.1215 19.6935C30.354 19.527 30.5505 19.278 30.7125 18.942L30.6735 19.7655L33.012 19.7655V9.8235H31.17V17.5605C31.17 17.979 30.8265 18.3225 30.402 18.3225C29.9835 18.3225 29.634 17.979 29.634 17.5605V9.8235H27.7155V16.53L27.7125 16.5285ZM21.108 11.217C20.9505 11.7525 20.8695 12.498 20.8695 13.452V16.083C20.8695 16.956 20.913 17.6115 21 18.0465C21.0885 18.48 21.234 18.855 21.4395 19.1595C21.6435 19.467 21.93 19.6965 22.3005 19.848C22.671 20.004 23.1195 20.0745 23.652 20.0745C24.129 20.0745 24.552 19.986 24.9195 19.8075C25.2825 19.632 25.587 19.3515 25.821 18.981C26.058 18.606 26.2125 18.2025 26.283 17.772C26.3535 17.3415 26.3895 16.662 26.3895 15.741V13.2285C26.3895 12.4995 26.3535 11.9565 26.271 11.5995C26.1945 11.247 26.052 10.899 25.8375 10.5645C25.629 10.2285 25.3305 9.96 24.9405 9.75C24.5535 9.54 24.0915 9.435 23.55 9.435C22.9065 9.435 22.3785 9.5985 21.9645 9.924C21.5535 10.248 21.267 10.6785 21.108 11.217ZM13.455 5.9025L16.2285 12.4515L16.23 20.073H18.4365L18.438 12.4485L21.045 5.9175H18.633L17.247 10.7685L15.8415 5.9025H13.455ZM39.0825 26.7675C39.0825 24.2085 36.864 22.1115 34.146 22.1115L13.854 22.1115C11.139 22.1115 8.919 24.2055 8.919 26.7675V37.4415C8.919 40.002 11.1375 42.0975 13.854 42.0975H34.146C36.864 42.0975 39.0825 40.0035 39.0825 37.4415V26.7675ZM36.021 35.244C36.7395 39.5055 30.7245 40.2075 30.7245 35.2515V32.274C30.7245 31.3785 30.813 30.678 30.993 30.162C31.17 29.646 31.4715 29.2605 31.8735 28.9785C33.1455 28.0605 35.655 28.3425 35.913 30.135C35.997 30.7005 36.021 31.6905 36.021 32.6805V34.032H32.421V35.28V36.2475V36.3405C32.421 36.81 32.8095 37.1925 33.279 37.1925H33.5865C34.0575 37.1925 34.446 36.8085 34.446 36.3405V35.4645C34.446 35.3835 34.449 35.313 34.4505 35.25L36.021 35.244ZM32.445 32.379H34.4325L34.4565 31.2225C34.4565 30.7095 34.035 30.291 33.516 30.291H33.393C32.8755 30.291 32.4555 30.7095 32.4555 31.2225L32.445 32.379Z" fill="#70727E"/>
</g>
<defs>
<clipPath id="clip0_350_507">
<rect width="48" height="48" rx="24" fill="white"/>
</clipPath>
</defs>
</svg>
